<?xml version="1.0" encoding="iso-8859-1"?>
<!-- Generator: Adobe Illustrator 19.0.0, SVG Export Plug-In . SVG Version: 6.00 Build 0)  -->
<svg version="1.1" id="Layer_1" xmlns="http://www.w3.org/2000/svg" xmlns:xlink="http://www.w3.org/1999/xlink" x="0px" y="0px"
	 viewBox="0 0 512 512" style="enable-background:new 0 0 512 512;" xml:space="preserve">
<path style="fill:#FF1E1E;" d="M443.659,59.181H68.341C30.657,59.181,0,89.838,0,127.522v282.022
	c0,37.684,30.657,68.342,68.341,68.342h375.318c37.684,0,68.341-30.657,68.341-68.342V127.522
	C512,89.838,481.344,59.181,443.659,59.181z"/>
<path style="fill:#FF7F55;" d="M256.001,59.181H68.341C30.657,59.181,0,89.838,0,127.522v282.022
	c0,37.684,30.657,68.342,68.341,68.342h187.659L256.001,59.181L256.001,59.181z"/>
<path style="fill:#3F54C0;" d="M512,127.522c0-37.684-30.657-68.342-68.341-68.342H68.341C30.657,59.181,0,89.838,0,127.522V174.7
	h512V127.522z"/>
<path style="fill:#5F7BF0;" d="M256.001,59.181H68.341C30.657,59.181,0,89.838,0,127.522V174.7h256.001V59.181z"/>
<path style="fill:#CCCCCC;" d="M96.231,113.681c-9.522,0-17.241-7.72-17.241-17.241V51.354c0-9.522,7.72-17.241,17.241-17.241
	s17.241,7.72,17.241,17.241v45.085C113.472,105.961,105.753,113.681,96.231,113.681z"/>
<path style="fill:#ECECEC;" d="M96.231,113.681c-9.522,0-17.241-7.72-17.241-17.241V51.354c0-9.522,7.72-17.241,17.241-17.241
	V113.681z"/>
<path style="fill:#CCCCCC;" d="M160.138,113.681c-9.522,0-17.241-7.72-17.241-17.241V51.354c0-9.522,7.72-17.241,17.241-17.241
	c9.522,0,17.241,7.72,17.241,17.241v45.085C177.379,105.961,169.659,113.681,160.138,113.681z"/>
<path style="fill:#ECECEC;" d="M160.138,113.681c-9.522,0-17.241-7.72-17.241-17.241V51.354c0-9.522,7.72-17.241,17.241-17.241
	V113.681z"/>
<path style="fill:#CCCCCC;" d="M224.045,113.681c-9.522,0-17.241-7.72-17.241-17.241V51.354c0-9.522,7.72-17.241,17.241-17.241
	c9.522,0,17.241,7.72,17.241,17.241v45.085C241.287,105.961,233.567,113.681,224.045,113.681z"/>
<path style="fill:#ECECEC;" d="M224.045,113.681c-9.522,0-17.241-7.72-17.241-17.241V51.354c0-9.522,7.72-17.241,17.241-17.241
	V113.681z"/>
<path style="fill:#CCCCCC;" d="M287.953,113.681c-9.522,0-17.241-7.72-17.241-17.241V51.354c0-9.522,7.72-17.241,17.241-17.241
	s17.241,7.72,17.241,17.241v45.085C305.195,105.961,297.475,113.681,287.953,113.681z"/>
<path style="fill:#ECECEC;" d="M287.953,113.681c-9.522,0-17.241-7.72-17.241-17.241V51.354c0-9.522,7.72-17.241,17.241-17.241
	V113.681z"/>
<path style="fill:#CCCCCC;" d="M351.86,113.681c-9.522,0-17.241-7.72-17.241-17.241V51.354c0-9.522,7.72-17.241,17.241-17.241
	c9.522,0,17.241,7.72,17.241,17.241v45.085C369.101,105.961,361.382,113.681,351.86,113.681z"/>
<path style="fill:#ECECEC;" d="M351.86,113.681c-9.522,0-17.241-7.72-17.241-17.241V51.354c0-9.522,7.72-17.241,17.241-17.241
	V113.681z"/>
<path style="fill:#CCCCCC;" d="M415.768,113.681c-9.522,0-17.241-7.72-17.241-17.241V51.354c0-9.522,7.72-17.241,17.241-17.241
	s17.241,7.72,17.241,17.241v45.085C433.009,105.961,425.29,113.681,415.768,113.681z"/>
<path style="fill:#ECECEC;" d="M415.768,113.681c-9.522,0-17.241-7.72-17.241-17.241V51.354c0-9.522,7.72-17.241,17.241-17.241
	V113.681z"/>
<g>
	<path style="fill:#FFFFFF;" d="M120.854,286.638H80.819c-4.179,0-7.568-3.388-7.568-7.568v-40.034c0-4.179,3.388-7.568,7.568-7.568
		h40.034c4.179,0,7.568,3.389,7.568,7.568v40.034C128.42,283.251,125.033,286.638,120.854,286.638z"/>
	<path style="fill:#FFFFFF;" d="M224.296,286.638h-40.034c-4.179,0-7.568-3.388-7.568-7.568v-40.034
		c0-4.179,3.388-7.568,7.568-7.568h40.034c4.179,0,7.568,3.389,7.568,7.568v40.034C231.864,283.251,228.475,286.638,224.296,286.638
		z"/>
</g>
<g>
	<path style="fill:#ECECEC;" d="M327.739,286.638h-40.034c-4.179,0-7.568-3.388-7.568-7.568v-40.034
		c0-4.179,3.388-7.568,7.568-7.568h40.034c4.179,0,7.568,3.389,7.568,7.568v40.034C335.306,283.251,331.919,286.638,327.739,286.638
		z"/>
	<path style="fill:#ECECEC;" d="M431.182,286.638h-40.034c-4.179,0-7.568-3.388-7.568-7.568v-40.034
		c0-4.179,3.389-7.568,7.568-7.568h40.034c4.179,0,7.568,3.389,7.568,7.568v40.034C438.75,283.251,435.361,286.638,431.182,286.638z
		"/>
</g>
<g>
	<path style="fill:#FFFFFF;" d="M120.854,387.804H80.819c-4.179,0-7.568-3.389-7.568-7.568v-40.034c0-4.179,3.388-7.568,7.568-7.568
		h40.034c4.179,0,7.568,3.388,7.568,7.568v40.034C128.42,384.416,125.033,387.804,120.854,387.804z"/>
	<path style="fill:#FFFFFF;" d="M224.296,387.804h-40.034c-4.179,0-7.568-3.389-7.568-7.568v-40.034
		c0-4.179,3.388-7.568,7.568-7.568h40.034c4.179,0,7.568,3.388,7.568,7.568v40.034C231.864,384.416,228.475,387.804,224.296,387.804
		z"/>
</g>
<g>
	<path style="fill:#ECECEC;" d="M327.739,387.804h-40.034c-4.179,0-7.568-3.389-7.568-7.568v-40.034
		c0-4.179,3.388-7.568,7.568-7.568h40.034c4.179,0,7.568,3.388,7.568,7.568v40.034C335.306,384.416,331.919,387.804,327.739,387.804
		z"/>
	<path style="fill:#ECECEC;" d="M431.182,387.804h-40.034c-4.179,0-7.568-3.389-7.568-7.568v-40.034
		c0-4.179,3.389-7.568,7.568-7.568h40.034c4.179,0,7.568,3.388,7.568,7.568v40.034C438.75,384.416,435.361,387.804,431.182,387.804z
		"/>
</g>
<path style="fill:#1E2E57;" d="M383.58,399.298c-2.943,0-5.883-1.122-8.128-3.367c-4.488-4.488-4.488-11.767,0-16.256l55.17-55.17
	c4.49-4.488,11.766-4.488,16.256,0c4.488,4.488,4.488,11.767,0,16.256l-55.17,55.17C389.462,398.177,386.521,399.298,383.58,399.298
	z"/>
<path style="fill:#40467C;" d="M176.695,296.803c-2.943,0-5.883-1.122-8.128-3.367c-4.488-4.488-4.488-11.767,0-16.255l55.169-55.17
	c4.49-4.488,11.765-4.49,16.256,0c4.488,4.488,4.488,11.767,0,16.255l-55.169,55.17C182.578,295.68,179.636,296.803,176.695,296.803
	z"/>
<g>
	<path style="fill:#1E2E57;" d="M280.137,296.803c-2.943,0-5.883-1.122-8.128-3.367c-4.488-4.488-4.488-11.767,0-16.255
		l55.169-55.17c4.49-4.488,11.765-4.49,16.256,0c4.488,4.488,4.488,11.767,0,16.255l-55.169,55.17
		C286.02,295.68,283.079,296.803,280.137,296.803z"/>
	<path style="fill:#1E2E57;" d="M383.58,296.803c-2.943,0-5.883-1.122-8.128-3.367c-4.488-4.488-4.488-11.767,0-16.256l55.17-55.17
		c4.49-4.488,11.766-4.488,16.256,0c4.488,4.488,4.488,11.767,0,16.256l-55.17,55.17
		C389.462,295.681,386.521,296.803,383.58,296.803z"/>
</g>
<g>
</g>
<g>
</g>
<g>
</g>
<g>
</g>
<g>
</g>
<g>
</g>
<g>
</g>
<g>
</g>
<g>
</g>
<g>
</g>
<g>
</g>
<g>
</g>
<g>
</g>
<g>
</g>
<g>
</g>
</svg>
